<svg xmlns="http://www.w3.org/2000/svg">
  <symbol id="tabler-upload" viewBox="0 0 24 24" stroke-width="2" stroke="currentColor" fill="none" stroke-linecap="round" stroke-linejoin="round">
    <path stroke="none" d="M0 0h24v24H0z" fill="none"/>
    <path d="M4 17v2a2 2 0 0 0 2 2h12a2 2 0 0 0 2 -2v-2" />
    <polyline points="7 9 12 4 17 9" />
    <line x1="12" y1="4" x2="12" y2="16" />
  </symbol>
  
  <symbol id="tabler-download" viewBox="0 0 24 24" stroke-width="2" stroke="currentColor" fill="none" stroke-linecap="round" stroke-linejoin="round">
    <path stroke="none" d="M0 0h24v24H0z" fill="none"/>
    <path d="M4 17v2a2 2 0 0 0 2 2h12a2 2 0 0 0 2 -2v-2" />
    <polyline points="7 11 12 16 17 11" />
    <line x1="12" y1="4" x2="12" y2="16" />
  </symbol>
  
  <symbol id="tabler-trash" viewBox="0 0 24 24" stroke-width="2" stroke="currentColor" fill="none" stroke-linecap="round" stroke-linejoin="round">
    <path stroke="none" d="M0 0h24v24H0z" fill="none"/>
    <line x1="4" y1="7" x2="20" y2="7" />
    <line x1="10" y1="11" x2="10" y2="17" />
    <line x1="14" y1="11" x2="14" y2="17" />
    <path d="M5 7l1 12a2 2 0 0 0 2 2h8a2 2 0 0 0 2 -2l1 -12" />
    <path d="M9 7v-3a1 1 0 0 1 1 -1h4a1 1 0 0 1 1 1v3" />
  </symbol>
  
  <symbol id="tabler-eraser" viewBox="0 0 24 24" stroke-width="2" stroke="currentColor" fill="none" stroke-linecap="round" stroke-linejoin="round">
    <path stroke="none" d="M0 0h24v24H0z" fill="none"/>
    <path d="M19 19h-11l-4 -4a1 1 0 0 1 0 -1.41l10 -10a1 1 0 0 1 1.41 0l5 5a1 1 0 0 1 0 1.41l-9 9" />
    <line x1="18" y1="12.3" x2="11.7" y2="6" />
  </symbol>

  <symbol id="tabler-square-rounded-plus" viewBox="0 0 24 24" stroke-width="2" stroke="currentColor" fill="none" stroke-linecap="round" stroke-linejoin="round">
    <path stroke="none" d="M0 0h24v24H0z" fill="none"/>
    <path d="M9 12h6" />
    <path d="M12 9v6" />
    <path d="M12 3c7.2 0 9 1.8 9 9s-1.8 9 -9 9s-9 -1.8 -9 -9s1.8 -9 9 -9z" />
  </symbol>
  
  <symbol id="tabler-square-rounded-minus" viewBox="0 0 24 24" stroke-width="2" fill="none"  stroke="currentColor" stroke-linecap="round" stroke-linejoin="round">
    <path stroke="none" d="M0 0h24v24H0z" fill="none" />
    <path d="M9 12h6" />
    <path d="M12 3c7.2 0 9 1.8 9 9s-1.8 9 -9 9s-9 -1.8 -9 -9s1.8 -9 9 -9z" />
</symbol>
  
  <symbol id="tabler-square-rounded-chevron-down" viewBox="0 0 24 24" stroke-width="2"  stroke="currentColor" fill="none" stroke-linecap="round" stroke-linejoin="round">
  <path stroke="none" d="M0 0h24v24H0z" fill="none" />
  <path d="M15 11l-3 3l-3 -3" />
  <path d="M12 3c7.2 0 9 1.8 9 9s-1.8 9 -9 9s-9 -1.8 -9 -9s1.8 -9 9 -9z" />
  </symbol>
  
  <symbol id="tabler-chevrons-left" viewBox="0 0 24 24" stroke-width="2" stroke="currentColor" fill="none" stroke-linecap="round" stroke-linejoin="round">
    <path stroke="none" d="M0 0h24v24H0z" fill="none"></path>
    <path d="M11 7l-5 5l5 5"></path>
    <path d="M17 7l-5 5l5 5"></path>
  </symbol>
 
  <symbol id="tabler-chevron-left" viewBox="0 0 24 24" stroke-width="2" stroke="currentColor" fill="none" stroke-linecap="round" stroke-linejoin="round">
   <path stroke="none" d="M0 0h24v24H0z" fill="none"></path>
   <path d="M15 6l-6 6l6 6"></path>
  </symbol>
  
  <symbol id="tabler-chevron-right" viewBox="0 0 24 24" stroke-width="2" stroke="currentColor" fill="none" stroke-linecap="round" stroke-linejoin="round">
    <path stroke="none" d="M0 0h24v24H0z" fill="none"></path>
    <path d="M9 6l6 6l-6 6"></path>
  </symbol>
  
  <symbol id="tabler-chevrons-right" viewBox="0 0 24 24" stroke-width="2" stroke="currentColor" fill="none" stroke-linecap="round" stroke-linejoin="round">
   <path stroke="none" d="M0 0h24v24H0z" fill="none"></path>
   <path d="M7 7l5 5l-5 5"></path>
   <path d="M13 7l5 5l-5 5"></path>
  </symbol>

  <symbol id="tabler-info-circle" viewBox="0 0 24 24" stroke-width="2" stroke="currentColor" fill="none" stroke-linecap="round" stroke-linejoin="round">
    <path stroke="none" d="M0 0h24v24H0z" fill="none"/>
    <path d="M3 12a9 9 0 1 0 18 0a9 9 0 0 0 -18 0" />
    <path d="M12 9h.01" />
    <path d="M11 12h1v4h1" />
  </symbol>
  
  <symbol id="tabler-check" viewBox="0 0 24 24" stroke-width="2" stroke="currentColor" fill="none" stroke-linecap="round" stroke-linejoin="round">
    <path stroke="none" d="M0 0h24v24H0z" fill="none"></path>
    <path d="M5 12l5 5l10 -10"></path>
  </symbol>

  <symbol id="tabler-circle-check" viewBox="0 0 24 24" fill="none" stroke="currentColor" stroke-width="2" stroke-linecap="round" stroke-linejoin="round">
    <path stroke="none" d="M0 0h24v24H0z" fill="none" />
    <path d="M12 12m-9 0a9 9 0 1 0 18 0a9 9 0 1 0 -18 0" />
    <path d="M9 12l2 2l4 -4" />
  </symbol>

  <symbol id="tabler-circle-dot" viewBox="0 0 24 24" fill="none" stroke="currentColor" stroke-width="2" stroke-linecap="round" stroke-linejoin="round">
    <path stroke="none" d="M0 0h24v24H0z" fill="none" />
    <path d="M12 12m-1 0a1 1 0 1 0 2 0a1 1 0 1 0 -2 0" />
    <path d="M12 12m-9 0a9 9 0 1 0 18 0a9 9 0 1 0 -18 0" />
  </symbol>
  
  <symbol id="tabler-x" viewBox="0 0 24 24" stroke-width="2" stroke="currentColor" fill="none" stroke-linecap="round" stroke-linejoin="round">
    <path stroke="none" d="M0 0h24v24H0z" fill="none"/>
    <path d="M18 6l-12 12" />
    <path d="M6 6l12 12" />
  </symbol>

  <symbol id="tabler-switch" viewBox="0 0 24 24" stroke-width="2" stroke="currentColor" fill="none" stroke-linecap="round" stroke-linejoin="round">
    <path stroke="none" d="M0 0h24v24H0z" fill="none"></path>
    <path d="M15 4l4 0l0 4"></path>
    <path d="M14.75 9.25l4.25 -5.25"></path>
    <path d="M5 19l4 -4"></path>
    <path d="M15 19l4 0l0 -4"></path>
    <path d="M5 5l14 14"></path>
  </symbol>

  <symbol id="tabler-edit" viewBox="0 0 24 24" stroke-width="2" stroke="currentColor" fill="none" stroke-linecap="round" stroke-linejoin="round">
    <path stroke="none" d="M0 0h24v24H0z" fill="none"/>
    <path d="M7 7h-1a2 2 0 0 0 -2 2v9a2 2 0 0 0 2 2h9a2 2 0 0 0 2 -2v-1" />
    <path d="M20.385 6.585a2.1 2.1 0 0 0 -2.97 -2.97l-8.415 8.385v3h3l8.385 -8.415z" />
    <path d="M16 5l3 3" />
  </symbol>
  
  <symbol id="tabler-settings" viewBox="0 0 24 24" stroke-width="1.5" stroke="currentColor" fill="none" stroke-linecap="round" stroke-linejoin="round">
    <path stroke="none" d="M0 0h24v24H0z" fill="none"/>
    <path d="M10.325 4.317c.426 -1.756 2.924 -1.756 3.35 0a1.724 1.724 0 0 0 2.573 1.066c1.543 -.94 3.31 .826 2.37 2.37a1.724 1.724 0 0 0 1.065 2.572c1.756 .426 1.756 2.924 0 3.35a1.724 1.724 0 0 0 -1.066 2.573c.94 1.543 -.826 3.31 -2.37 2.37a1.724 1.724 0 0 0 -2.572 1.065c-.426 1.756 -2.924 1.756 -3.35 0a1.724 1.724 0 0 0 -2.573 -1.066c-1.543 .94 -3.31 -.826 -2.37 -2.37a1.724 1.724 0 0 0 -1.065 -2.572c-1.756 -.426 -1.756 -2.924 0 -3.35a1.724 1.724 0 0 0 1.066 -2.573c-.94 -1.543 .826 -3.31 2.37 -2.37c1 .608 2.296 .07 2.572 -1.065z" />
    <path d="M9 12a3 3 0 1 0 6 0a3 3 0 0 0 -6 0" />
  </symbol>

  <symbol id="tabler-adjustments" viewBox="0 0 24 24" stroke-width="2" stroke="currentColor" fill="none" stroke-linecap="round" stroke-linejoin="round">
    <path stroke="none" d="M0 0h24v24H0z" fill="none"/>
    <path d="M4 10a2 2 0 1 0 4 0a2 2 0 0 0 -4 0" />
    <path d="M6 4v4" />
    <path d="M6 12v8" />
    <path d="M10 16a2 2 0 1 0 4 0a2 2 0 0 0 -4 0" />
    <path d="M12 4v10" />
    <path d="M12 18v2" />
    <path d="M16 7a2 2 0 1 0 4 0a2 2 0 0 0 -4 0" />
    <path d="M18 4v1" />
    <path d="M18 9v11" />
  </symbol>

  <symbol id="tabler-adjustments-search" viewBox="0 0 24 24" stroke-width="2" stroke="currentColor" fill="none" stroke-linecap="round" stroke-linejoin="round">
    <path stroke="none" d="M0 0h24v24H0z" fill="none"/>
    <path d="M4 10a2 2 0 1 0 4 0a2 2 0 0 0 -4 0" />
    <path d="M6 4v4" />
    <path d="M6 12v8" />
    <path d="M12 14a2 2 0 0 0 -1.042 3.707" />
    <path d="M12 4v10" />
    <path d="M16 7a2 2 0 1 0 4 0a2 2 0 0 0 -4 0" />
    <path d="M18 4v1" />
    <path d="M18 9v2" />
    <path d="M18 18m-3 0a3 3 0 1 0 6 0a3 3 0 1 0 -6 0" />
    <path d="M20.2 20.2l1.8 1.8" />
  </symbol>
  
  <symbol id="tabler-ghost" viewBox="0 0 24 24" stroke-width="2" stroke="currentColor" fill="none" stroke-linecap="round" stroke-linejoin="round">
    <path stroke="none" d="M0 0h24v24H0z" fill="none"/>
    <path d="M5 11a7 7 0 0 1 14 0v7a1.78 1.78 0 0 1 -3.1 1.4a1.65 1.65 0 0 0 -2.6 0a1.65 1.65 0 0 1 -2.6 0a1.65 1.65 0 0 0 -2.6 0a1.78 1.78 0 0 1 -3.1 -1.4v-7" />
    <path d="M10 10l.01 0" />
    <path d="M14 10l.01 0" />
    <path d="M10 14a3.5 3.5 0 0 0 4 0" />
  </symbol>

  <symbol id="tabler-plus" viewBox="0 0 24 24" stroke-width="2" stroke="currentColor" fill="none" stroke-linecap="round" stroke-linejoin="round">
    <path stroke="none" d="M0 0h24v24H0z" fill="none"/>
    <path d="M12 5l0 14" />
    <path d="M5 12l14 0" />
  </symbol>

  <symbol id="tabler-maximize" viewBox="0 0 24 24"  fill="none" stroke="currentColor" stroke-width="2" stroke-linecap="round" stroke-linejoin="round">
    <path stroke="none" d="M0 0h24v24H0z" fill="none"/>
    <path d="M4 8v-2a2 2 0 0 1 2 -2h2" />
    <path d="M4 16v2a2 2 0 0 0 2 2h2" />
    <path d="M16 4h2a2 2 0 0 1 2 2v2" />
    <path d="M16 20h2a2 2 0 0 0 2 -2v-2" />
  </symbol>

  <symbol id="tabler-menu-2" viewBox="0 0 24 24"  fill="none" stroke="currentColor" stroke-width="2" stroke-linecap="round" stroke-linejoin="round">
    <path stroke="none" d="M0 0h24v24H0z" fill="none"/>
    <path d="M4 6l16 0" />
    <path d="M4 12l16 0" />
    <path d="M4 18l16 0" />
  </symbol>

  <symbol id ="tabler-external-link" viewBox="0 0 24 24" fill="none"  stroke="currentColor"  stroke-width="2"  stroke-linecap="round"  stroke-linejoin="round">
    <path stroke="none" d="M0 0h24v24H0z" fill="none"/>
    <path d="M12 6h-6a2 2 0 0 0 -2 2v10a2 2 0 0 0 2 2h10a2 2 0 0 0 2 -2v-6" />
    <path d="M11 13l9 -9" />
    <path d="M15 4h5v5" />
  </symbol>

  <symbol id="tabler-pencil-off" viewBox="0 0 24 24" fill="none" stroke="currentColor" stroke-width="2" stroke-linecap="round" stroke-linejoin="round">
    <path stroke="none" d="M0 0h24v24H0z" fill="none"/>
    <path d="M10 10l-6 6v4h4l6 -6m1.99 -1.99l2.504 -2.504a2.828 2.828 0 1 0 -4 -4l-2.5 2.5" />
    <path d="M13.5 6.5l4 4" />
    <path d="M3 3l18 18" />
  </symbol>

  <symbol id="tabler-stack-push" viewBox="0 0 24 24" fill="none" stroke="currentColor" stroke-width="2" stroke-linecap="round" stroke-linejoin="round">
    <path stroke="none" d="M0 0h24v24H0z" fill="none"/>
    <path d="M6 10l-2 1l8 4l8 -4l-2 -1" />
    <path d="M4 15l8 4l8 -4" />
    <path d="M12 4v7" />
    <path d="M15 8l-3 3l-3 -3" />
  </symbol>

  <symbol id="tabler-stack-pop" fill="none" viewBox="0 0 24 24" stroke="currentColor" stroke-width="2" stroke-linecap="round" stroke-linejoin="round">
    <path stroke="none" d="M0 0h24v24H0z" fill="none" />
    <path d="M7 9.5l-3 1.5l8 4l8 -4l-3 -1.5" />
    <path d="M4 15l8 4l8 -4" />
    <path d="M12 11v-7" />
    <path d="M9 7l3 -3l3 3" />
  </symbol>

  <symbol id="tabler-stack-middle" viewBox="0 0 24 24" fill="none" stroke="currentColor" stroke-width="2" stroke-linecap="round" stroke-linejoin="round">
    <path stroke="none" d="M0 0h24v24H0z" fill="none" />
    <path d="M16 10l4 -2l-8 -4l-8 4l4 2" />
    <path d="M12 12l-4 -2l-4 2l8 4l8 -4l-4 -2l-4 2z" fill="currentColor" />
    <path d="M8 14l-4 2l8 4l8 -4l-4 -2" />
  </symbol>

  <symbol id="tabler-circle-x" viewBox="0 0 24 24" fill="none" stroke="currentColor" stroke-width="2" stroke-linecap="round" stroke-linejoin="round">
    <path stroke="none" d="M0 0h24v24H0z" fill="none" />
    <path d="M12 12m-9 0a9 9 0 1 0 18 0a9 9 0 1 0 -18 0" />
    <path d="M10 10l4 4m0 -4l-4 4" />
  </symbol>

  <symbol id="tabler-bell" viewBox="0 0 24 24" fill="none" stroke="currentColor" stroke-width="2" stroke-linecap="round" stroke-linejoin="round" >
    <path stroke="none" d="M0 0h24v24H0z" fill="none" />
    <path d="M10 5a2 2 0 1 1 4 0a7 7 0 0 1 4 6v3a4 4 0 0 0 2 3h-16a4 4 0 0 0 2 -3v-3a7 7 0 0 1 4 -6" />
    <path d="M9 17v1a3 3 0 0 0 6 0v-1" />
  </symbol>
  
  <symbol id="tabler-mood-wrrr" viewBox="0 0 24 24" fill="none" stroke="currentColor" stroke-width="2" stroke-linecap="round" stroke-linejoin="round">
    <path stroke="none" d="M0 0h24v24H0z" fill="none" />
    <path d="M12 21a9 9 0 1 1 0 -18a9 9 0 0 1 0 18z" />
    <path d="M8 16l1 -1l1.5 1l1.5 -1l1.5 1l1.5 -1l1 1" />
    <path d="M8.5 11.5l1.5 -1.5l-1.5 -1.5" />
    <path d="M15.5 11.5l-1.5 -1.5l1.5 -1.5" />
  </symbol>

</svg>
